<svg width="297" height="207" viewBox="0 0 297 207" fill="none" xmlns="http://www.w3.org/2000/svg">
<path d="M231.748 47.44C230.047 47.6286 228.343 47.7809 226.657 47.9328L225.4 48.0461C220.122 48.5237 214.663 49.0189 209.453 48.1542C204.918 47.4014 204.281 44.2426 203.605 40.8986C202.264 34.2591 201.812 27.2822 201.521 20.7311C201.496 20.1595 201.431 19.4817 201.361 18.7421C201.036 15.3276 200.591 10.6508 203.141 8.60353C206.756 5.7013 212.923 5.26329 217.881 4.91374C218.69 4.85655 219.459 4.8014 220.167 4.73918C226.328 4.1946 233.453 3.70569 240.094 4.8035C240.306 4.80116 240.518 4.84018 240.724 4.92211C243.644 6.05772 244.908 12.8496 245.332 16.0362C245.352 16.0949 245.373 16.1608 245.393 16.2341L245.418 16.2371C245.418 16.246 245.418 16.2712 245.421 16.3359C246.376 19.9771 247.578 37.8968 247.578 38.0886C247.581 41.5388 247.39 43.7203 243.577 45.0406C239.81 46.3452 235.784 46.9928 231.748 47.44ZM213.57 6.35508C209.9 6.76172 206.194 7.52995 203.814 9.44046C201.714 11.1259 202.128 15.4697 202.43 18.6406C202.501 19.4005 202.568 20.0967 202.594 20.6837C202.882 27.1921 203.331 34.1197 204.658 40.6869C205.403 44.3766 206.002 46.4941 209.63 47.0954C214.704 47.9379 220.094 47.4495 225.305 46.9777L226.562 46.8643C232.185 46.3614 237.996 45.8386 243.228 44.0263C246.229 42.9877 246.511 41.5737 246.507 38.0894C246.503 33.3922 245.229 22.3751 244.653 18.0865L244.496 18.0771L244.45 17.5932C244.449 17.5875 244.449 17.5835 244.448 17.5787C244.181 14.82 242.868 6.90662 240.337 5.9221C240.25 5.88783 240.168 5.87336 240.088 5.87744L239.971 5.8709C233.44 4.78203 226.373 5.26775 220.264 5.80824C219.55 5.87117 218.774 5.92623 217.957 5.98423C216.563 6.08272 215.069 6.18894 213.57 6.35508Z" fill="#FCC112"/>
<path d="M205.849 7.23103C205.861 7.35642 205.665 5.17156 204.997 4.9116C204.965 4.89892 204.935 4.8949 204.907 4.89641C203.667 4.68934 202.355 4.77296 201.111 4.88326C200.174 4.96592 198.688 4.97458 197.908 5.60054C197.362 6.03886 197.609 7.23746 197.636 7.83654C197.692 9.11641 197.778 10.4222 198.032 11.6794C198.176 12.3922 198.304 12.8599 199.068 12.9865C200.094 13.1571 201.193 13.0459 202.221 12.9531C203.318 12.8542 204.498 12.7576 205.546 12.3945C206.201 12.1675 206.243 11.82 206.243 11.1611C206.243 9.85228 205.726 5.9285 205.849 7.23103Z" fill="#FCC112"/>
<path d="M245.121 2.87898C245.133 3.00437 244.937 0.819508 244.269 0.559545C244.237 0.546873 244.207 0.542847 244.179 0.544355C242.938 0.337373 241.627 0.420909 240.383 0.531212C239.446 0.613872 237.96 0.62262 237.18 1.24849C236.634 1.68681 236.881 2.8854 236.908 3.48449C236.964 4.76436 237.05 6.07017 237.304 7.32735C237.448 8.04017 237.576 8.50785 238.34 8.63443C239.366 8.80506 240.465 8.69382 241.493 8.60102C242.59 8.50218 243.77 8.40559 244.818 8.04242C245.473 7.81548 245.515 7.46797 245.515 6.80906C245.514 5.50032 244.997 1.57654 245.121 2.87898Z" fill="#FCC112"/>
<path d="M209.986 44.566C209.999 44.6914 209.802 42.5065 209.135 42.2465C209.102 42.2339 209.073 42.2299 209.044 42.2314C207.804 42.0243 206.493 42.1079 205.248 42.2182C204.311 42.3009 202.825 42.3095 202.045 42.9355C201.499 43.3738 201.746 44.5724 201.773 45.1715C201.829 46.4514 201.916 47.7572 202.169 49.0144C202.313 49.7272 202.441 50.1949 203.205 50.3214C204.231 50.4921 205.33 50.3808 206.358 50.288C207.455 50.1892 208.635 50.0926 209.684 49.7294C210.338 49.5025 210.38 49.155 210.38 48.4961C210.38 47.1872 209.863 43.2635 209.986 44.566Z" fill="#FCC112"/>
<path d="M249.259 40.2139C249.271 40.3393 249.074 38.1545 248.407 37.8945C248.375 37.8818 248.345 37.8778 248.317 37.8793C247.076 37.6723 245.765 37.7559 244.52 37.8662C243.584 37.9488 242.097 37.9576 241.317 38.5835C240.771 39.0218 241.018 40.2204 241.045 40.8194C241.102 42.0993 241.188 43.4051 241.442 44.6623C241.586 45.3751 241.713 45.8428 242.477 45.9694C243.503 46.14 244.602 46.0288 245.63 45.936C246.728 45.8371 247.907 45.7405 248.956 45.3774C249.611 45.1504 249.653 44.8029 249.653 44.144C249.651 42.8353 249.135 38.9115 249.259 40.2139Z" fill="#FCC112"/>
<path d="M216.019 19.3514C215.468 19.3922 215.033 19.2706 214.714 18.9866C214.395 18.7027 214.191 18.1655 214.103 17.3726C214.031 16.7216 214.12 16.2243 214.369 15.8773C214.618 15.5312 215.007 15.3281 215.537 15.2694C216.168 15.2206 216.938 15.1604 217.846 15.0907C218.753 15.021 219.681 14.9385 220.628 14.8442C221.573 14.75 222.422 14.6609 223.174 14.5775C224.699 14.4085 226.21 14.2256 227.71 14.0284C229.211 13.8313 230.668 13.6235 232.085 13.4048C232.571 13.3305 232.962 13.4359 233.261 13.7213C233.559 14.0075 233.747 14.475 233.819 15.1259C233.907 15.9181 233.832 16.4927 233.593 16.8482C233.354 17.2046 232.951 17.4134 232.382 17.4764C231.046 17.6861 229.645 17.8926 228.177 18.096C226.708 18.3002 225.221 18.4852 223.717 18.6519C222.396 18.7983 221.079 18.9288 219.765 19.0444C218.451 19.1591 217.201 19.2618 216.019 19.3514ZM221.388 16.8439C221.365 16.6409 221.432 16.458 221.589 16.2968C221.746 16.1356 221.936 15.991 222.158 15.8632C222.381 15.7354 222.615 15.633 222.864 15.5534C223.113 15.4747 223.308 15.4271 223.45 15.4113C223.613 15.3933 223.814 15.397 224.054 15.4216C224.293 15.4471 224.534 15.4968 224.78 15.5727C225.024 15.6488 225.235 15.7489 225.414 15.8729C225.593 15.9969 225.693 16.1613 225.716 16.3643C226.105 19.8806 226.428 23.3408 226.682 26.7486C226.936 30.1563 227.112 33.5102 227.211 36.8116C227.231 37.1799 227.136 37.4828 226.926 37.7222C226.715 37.9609 226.459 38.1485 226.156 38.2861C225.852 38.4222 225.537 38.5091 225.212 38.5451C224.887 38.5811 224.551 38.5663 224.205 38.5023C223.858 38.4376 223.564 38.2954 223.325 38.075C223.084 37.8547 222.952 37.5508 222.93 37.1617C222.83 34.0253 222.644 30.7343 222.375 27.2875C222.106 23.8408 221.777 20.3593 221.388 16.8439Z" fill="#FCC112"/>
<path d="M232.814 179.396C228.141 182.998 55.8487 205.164 46.1429 200.082C38.1827 195.92 32.0844 108.725 29.8433 74.1311C29.7689 72.924 29.6935 71.7892 29.6247 70.7138C29.2742 65.1978 32.973 59.1097 38.4211 58.3223C51.8159 56.3992 207.946 37.4841 215.375 40.347C216.712 40.8625 218.291 45.6077 219.943 53.0603C219.943 53.0626 219.945 53.0641 219.947 53.0639C219.95 53.0636 219.952 53.0649 219.952 53.0672C227.476 86.8951 236.65 176.448 232.814 179.396Z" fill="white"/>
<path d="M30.6701 84.6927C30.3856 82.1248 32.2163 79.7771 34.7675 79.3681C132.836 63.6463 174.254 58.2531 186.821 61.7119C188.576 62.195 189.396 63.9924 189.193 65.8015L188.398 72.8902C188.209 74.5756 187.166 75.9891 185.513 76.3677C170.01 79.9179 99.905 86.8928 68.6828 90.4629C53.9481 92.027 45.7051 92.5986 36.5877 93.5905C33.906 93.8823 31.4758 91.963 31.1787 89.2818L30.6701 84.6927Z" fill="#E9E4FF" fill-opacity="0.2"/>
<path d="M82.8539 100.568C72.5661 98.4232 42.5589 100.06 41.4788 104.661C40.391 109.296 41.5588 139.358 44.5711 143.271C47.5833 147.183 85.9972 144.022 87.888 140.519C89.7787 137.015 86.574 101.344 82.8539 100.568Z" fill="#E1E0E6"/>
<path d="M82.3638 155.58C74.9817 154.216 53.5775 155.874 52.8809 159.177C52.1796 162.505 53.5022 183.956 55.7173 186.701C57.9316 189.447 85.3155 186.564 86.6085 184.031C87.9023 181.498 85.033 156.074 82.3638 155.58Z" fill="white"/>
<path d="M81.4144 164.518C80.4833 167.371 77.4159 168.928 74.5625 167.997C71.71 167.066 70.1522 163.999 71.0831 161.146C72.0142 158.293 75.0816 156.735 77.935 157.666C80.7876 158.598 82.3454 161.666 81.4144 164.518Z" fill="#B3C5D8"/>
<path d="M86.6086 184.031C87.1559 182.958 86.9575 177.779 86.3434 172.129C82.9277 170.097 78.3814 169.937 74.9311 171.962C73.6266 172.728 72.2726 173.809 70.79 173.51C69.6474 173.28 68.8449 172.292 68.0076 171.482C65.7177 169.264 62.4892 168.049 59.3057 168.207C57.0441 168.32 54.8318 169.127 53.0008 170.456C53.4704 177.392 54.4461 185.127 55.7176 186.703C57.9325 189.446 85.3157 186.565 86.6086 184.031Z" fill="#B3C5D8"/>
<path d="M86.2188 164.387C86.2687 164.91 85.4488 155.774 82.6553 154.687C82.5203 154.635 82.3941 154.617 82.277 154.623C77.0894 153.758 71.6042 154.108 66.3971 154.569C62.4805 154.916 56.264 154.95 53.0021 157.568C50.7175 159.402 51.7534 164.416 51.8652 166.921C52.1023 172.272 52.4631 177.735 53.5254 182.995C54.1271 185.976 54.6599 187.932 57.8549 188.463C62.1489 189.176 66.7439 188.711 71.046 188.324C75.6369 187.91 80.5686 187.508 84.9541 185.989C87.6926 185.04 87.8702 183.585 87.868 180.831C87.8635 175.35 85.7013 158.94 86.2188 164.387ZM85.9158 178.274C86.0234 180.447 86.7887 183.306 84.5557 184.153C81.0587 185.479 76.9729 185.809 73.2886 186.222C69.0851 186.693 64.802 187.031 60.5697 186.832C59.508 186.783 57.5865 186.907 56.6773 186.246C55.8299 185.63 55.6735 184.065 55.4647 183.105C54.4621 178.5 54.1174 173.703 53.8441 169.008C53.7361 167.146 53.6538 165.282 53.6356 163.417C53.6258 162.456 53.278 160.197 53.835 159.321C54.5836 158.144 57.3786 157.815 58.5925 157.553C61.453 156.935 64.3861 156.599 67.3002 156.363C72.1566 155.969 77.2586 155.695 82.0942 156.486C83.6095 157.058 84.2596 164.032 84.4869 165.401C85.1923 169.655 85.7016 173.965 85.9158 178.274Z" fill="white"/>
<path d="M75.6359 188.422C74.2763 188.573 72.9152 188.695 71.5669 188.816L70.5517 188.907C66.3223 189.291 61.9479 189.686 57.7665 188.993C54.0643 188.378 53.5461 185.814 52.9985 183.101C51.9248 177.781 51.5613 172.192 51.3292 166.945C51.3097 166.49 51.257 165.949 51.2015 165.359C50.9389 162.602 50.579 158.826 52.6666 157.15C55.5845 154.807 60.5412 154.454 64.5229 154.174C65.1702 154.128 65.7837 154.085 66.3509 154.034C71.2829 153.598 76.9877 153.206 82.314 154.085C82.4943 154.084 82.6744 154.118 82.8518 154.187C85.2496 155.12 86.2779 160.734 86.6124 163.275C86.6188 163.297 86.6245 163.319 86.6302 163.341L86.6762 163.345C86.675 163.385 86.6789 163.458 86.6863 163.569C87.4618 166.966 88.4038 180.68 88.4042 180.831C88.4062 183.649 88.1875 185.437 85.1298 186.496C82.1033 187.544 78.8728 188.063 75.6359 188.422ZM61.0898 155.541C58.1691 155.864 55.2225 156.475 53.3386 157.987C51.7031 159.3 52.0303 162.743 52.2699 165.257C52.3277 165.866 52.3807 166.425 52.402 166.897C52.6326 172.101 52.9922 177.64 54.0516 182.889C54.6385 185.795 55.1085 187.463 57.9432 187.933C61.9897 188.604 66.2933 188.215 70.4561 187.839L71.472 187.747C75.9626 187.345 80.6066 186.927 84.7794 185.482C87.1259 184.669 87.3347 183.621 87.3319 180.832C87.3293 177.157 86.3384 168.427 85.8665 164.924L85.7315 164.916L85.6858 164.437C85.6855 164.435 85.6852 164.432 85.6849 164.429C85.4717 162.242 84.4354 155.955 82.4623 155.188C82.4062 155.166 82.3557 155.157 82.308 155.16L82.1894 155.153C76.9729 154.283 71.3279 154.671 66.4459 155.104C65.8746 155.154 65.2531 155.199 64.6001 155.244C63.4836 155.324 62.2881 155.408 61.0898 155.541Z" fill="#B3C5D8"/>
<path d="M125.171 151.163C117.789 149.799 96.3844 151.457 95.6878 154.76C94.9865 158.088 96.3091 179.539 98.5242 182.284C100.739 185.029 128.122 182.147 129.415 179.614C130.709 177.081 127.84 151.657 125.171 151.163Z" fill="white"/>
<path d="M124.221 160.101C123.29 162.954 120.222 164.511 117.369 163.58C114.516 162.649 112.958 159.582 113.889 156.729C114.82 153.876 117.888 152.318 120.741 153.249C123.594 154.181 125.152 157.249 124.221 160.101Z" fill="#B3C5D8"/>
<path d="M129.415 179.613C129.962 178.541 129.764 173.362 129.15 167.711C125.734 165.679 121.188 165.519 117.737 167.545C116.433 168.31 115.078 169.391 113.596 169.092C112.454 168.862 111.651 167.874 110.814 167.064C108.524 164.846 105.296 163.631 102.112 163.79C99.8505 163.902 97.6382 164.709 95.8072 166.038C96.2768 172.974 97.2525 180.709 98.524 182.285C100.739 185.028 128.121 182.147 129.415 179.613Z" fill="#B3C5D8"/>
<path d="M129.025 159.971C129.075 160.494 128.255 151.358 125.461 150.271C125.326 150.219 125.2 150.201 125.083 150.207C119.896 149.342 114.41 149.692 109.203 150.153C105.287 150.5 99.0702 150.534 95.8083 153.152C93.5237 154.986 94.5595 160 94.6713 162.505C94.9085 167.856 95.2693 173.319 96.3315 178.579C96.9332 181.56 97.4661 183.516 100.661 184.047C104.955 184.76 109.55 184.295 113.852 183.908C118.442 183.494 123.374 183.092 127.76 181.573C130.499 180.624 130.676 179.169 130.674 176.415C130.669 170.934 128.507 154.524 129.025 159.971ZM128.722 173.858C128.829 176.031 129.595 178.89 127.362 179.737C123.865 181.063 119.779 181.393 116.095 181.806C111.891 182.277 107.608 182.615 103.376 182.416C102.314 182.367 100.392 182.491 99.4835 181.83C98.636 181.214 98.4796 179.649 98.2709 178.689C97.2682 174.084 96.9235 169.287 96.6502 164.592C96.5422 162.73 96.4599 160.866 96.4418 159.001C96.432 158.04 96.0841 155.781 96.6411 154.905C97.3897 153.728 100.185 153.399 101.399 153.137C104.259 152.519 107.192 152.183 110.106 151.947C114.963 151.553 120.065 151.279 124.9 152.07C126.416 152.642 127.066 159.616 127.293 160.985C127.998 165.239 128.508 169.549 128.722 173.858Z" fill="white"/>
<path d="M118.449 184.003C117.09 184.154 115.731 184.276 114.384 184.397L113.37 184.489C109.137 184.873 104.759 185.269 100.573 184.576C96.8706 183.961 96.3532 181.397 95.8056 178.684C94.732 173.366 94.3685 167.776 94.1355 162.528C94.1157 162.071 94.0632 161.531 94.0075 160.941C93.7451 158.184 93.3868 154.408 95.4728 152.733C98.3907 150.39 103.347 150.038 107.329 149.757C107.976 149.712 108.59 149.668 109.156 149.617C114.088 149.181 119.794 148.789 125.121 149.669C125.301 149.668 125.481 149.701 125.657 149.77C128.057 150.704 129.085 156.32 129.419 158.861C129.425 158.881 129.431 158.903 129.437 158.925L129.483 158.929C129.481 158.969 129.485 159.043 129.493 159.154C130.269 162.554 131.211 176.264 131.211 176.414C131.213 179.233 130.994 181.021 127.936 182.079C124.912 183.126 121.683 183.645 118.449 184.003ZM103.896 151.124C100.975 151.448 98.0279 152.058 96.144 153.57C94.5094 154.883 94.8364 158.325 95.0752 160.839C95.1329 161.448 95.1861 162.008 95.2068 162.481C95.4374 167.686 95.7979 173.226 96.8562 178.472C97.4431 181.378 97.9131 183.046 100.748 183.516C104.798 184.188 109.106 183.797 113.273 183.42L114.288 183.329C118.775 182.923 123.414 182.508 127.584 181.065C129.931 180.252 130.139 179.205 130.137 176.415C130.134 172.74 129.143 164.009 128.671 160.508L128.536 160.499L128.49 160.021C128.49 160.018 128.49 160.015 128.49 160.013C128.276 157.825 127.24 151.539 125.267 150.771C125.211 150.749 125.16 150.74 125.111 150.742L124.994 150.736C119.778 149.866 114.132 150.255 109.25 150.687C108.678 150.738 108.057 150.782 107.404 150.828C106.289 150.907 105.094 150.991 103.896 151.124Z" fill="#B3C5D8"/>
<path d="M171.684 146.054C164.302 144.69 142.898 146.347 142.201 149.651C141.5 152.979 142.822 174.43 145.037 177.175C147.253 179.92 174.636 177.038 175.929 174.505C177.222 171.972 174.353 146.547 171.684 146.054Z" fill="white"/>
<path d="M170.734 154.992C169.803 157.844 166.736 159.402 163.882 158.471C161.03 157.54 159.472 154.473 160.403 151.619C161.334 148.767 164.402 147.209 167.254 148.14C170.108 149.072 171.665 152.139 170.734 154.992Z" fill="#B3C5D8"/>
<path d="M175.929 174.505C176.476 173.432 176.277 168.254 175.663 162.602C172.248 160.57 167.701 160.411 164.251 162.436C162.947 163.201 161.592 164.283 160.11 163.984C158.967 163.754 158.165 162.766 157.328 161.955C155.038 159.738 151.809 158.523 148.626 158.681C146.364 158.794 144.152 159.601 142.321 160.93C142.79 167.866 143.766 175.6 145.038 177.176C147.252 179.92 174.636 177.038 175.929 174.505Z" fill="#B3C5D8"/>
<path d="M175.539 154.862C175.589 155.385 174.769 146.249 171.975 145.162C171.84 145.109 171.714 145.091 171.597 145.098C166.409 144.233 160.924 144.583 155.717 145.043C151.8 145.391 145.584 145.425 142.322 148.043C140.037 149.876 141.073 154.891 141.185 157.395C141.422 162.747 141.783 168.21 142.845 173.47C143.447 176.45 143.98 178.407 147.175 178.938C151.469 179.651 156.064 179.186 160.366 178.799C164.956 178.385 169.888 177.982 174.274 176.464C177.012 175.515 177.19 174.06 177.188 171.306C177.182 165.825 175.021 149.414 175.539 154.862ZM175.236 168.748C175.343 170.921 176.109 173.781 173.876 174.628C170.379 175.954 166.293 176.284 162.608 176.696C158.405 177.168 154.122 177.506 149.89 177.307C148.828 177.257 146.906 177.382 145.997 176.721C145.151 176.105 144.993 174.54 144.785 173.58C143.782 168.974 143.437 164.178 143.164 159.483C143.056 157.621 142.974 155.757 142.955 153.892C142.946 152.931 142.598 150.672 143.155 149.796C143.903 148.619 146.698 148.29 147.912 148.027C150.773 147.41 153.706 147.073 156.62 146.837C161.476 146.444 166.578 146.17 171.414 146.961C172.929 147.533 173.579 154.507 173.807 155.876C174.512 160.13 175.021 164.44 175.236 168.748Z" fill="white"/>
<path d="M164.956 178.896C163.596 179.046 162.235 179.169 160.887 179.29L159.871 179.381C155.641 179.765 151.268 180.16 147.086 179.466C143.384 178.852 142.867 176.289 142.319 173.575C141.245 168.255 140.881 162.666 140.649 157.419C140.629 156.963 140.577 156.422 140.521 155.833C140.259 153.075 139.899 149.3 141.986 147.624C144.904 145.282 149.862 144.93 153.843 144.648C154.489 144.602 155.104 144.559 155.671 144.508C160.603 144.072 166.308 143.68 171.633 144.559C171.812 144.558 171.992 144.592 172.169 144.661C174.57 145.594 175.597 151.212 175.932 153.752C175.938 153.772 175.944 153.793 175.949 153.815L175.995 153.819C175.994 153.859 175.998 153.934 176.006 154.045C176.782 157.446 177.724 171.154 177.724 171.305C177.725 174.124 177.506 175.911 174.449 176.97C171.423 178.018 168.193 178.537 164.956 178.896ZM150.41 146.015C147.488 146.338 144.541 146.948 142.658 148.46C141.022 149.773 141.349 153.217 141.589 155.731C141.647 156.34 141.7 156.899 141.721 157.37C141.952 162.575 142.311 168.114 143.371 173.363C143.957 176.269 144.427 177.937 147.262 178.407C151.309 179.078 155.612 178.689 159.775 178.313L160.791 178.221C165.282 177.818 169.925 177.4 174.098 175.956C176.444 175.143 176.653 174.095 176.651 171.305C176.648 167.631 175.656 158.901 175.185 155.398L175.05 155.389L175.005 154.911C175.004 154.907 175.004 154.905 175.004 154.903C174.791 152.715 173.754 146.428 171.781 145.661C171.725 145.64 171.675 145.63 171.627 145.633L171.508 145.626C166.292 144.756 160.646 145.144 155.764 145.577C155.193 145.628 154.571 145.672 153.918 145.718C152.803 145.797 151.609 145.882 150.41 146.015Z" fill="#B3C5D8"/>
<path d="M212.972 139.21C205.59 137.846 184.186 139.504 183.489 142.807C182.788 146.135 184.11 167.586 186.325 170.331C188.54 173.076 215.924 170.194 217.217 167.661C218.51 165.127 215.642 139.703 212.972 139.21Z" fill="white"/>
<path d="M212.022 148.148C211.091 151.001 208.023 152.558 205.171 151.627C202.318 150.696 200.761 147.629 201.692 144.776C202.623 141.923 205.69 140.365 208.543 141.296C211.396 142.227 212.954 145.295 212.022 148.148Z" fill="#B3C5D8"/>
<path d="M217.217 167.66C217.765 166.587 217.566 161.408 216.952 155.757C213.536 153.725 208.99 153.566 205.54 155.591C204.235 156.357 202.881 157.438 201.399 157.139C200.256 156.909 199.454 155.921 198.616 155.111C196.326 152.893 193.098 151.678 189.914 151.836C187.653 151.949 185.44 152.756 183.609 154.085C184.079 161.021 185.055 168.756 186.326 170.332C188.54 173.076 215.923 170.194 217.217 167.66Z" fill="#B3C5D8"/>
<path d="M216.826 148.018C216.876 148.541 216.056 139.405 213.263 138.318C213.128 138.265 213.001 138.248 212.884 138.254C207.697 137.389 202.212 137.739 197.004 138.2C193.088 138.547 186.871 138.581 183.609 141.199C181.325 143.033 182.361 148.047 182.472 150.552C182.71 155.903 183.07 161.366 184.133 166.626C184.734 169.607 185.267 171.563 188.462 172.094C192.756 172.807 197.351 172.342 201.653 171.955C206.243 171.541 211.176 171.139 215.561 169.62C218.3 168.671 218.477 167.216 218.475 164.462C218.471 158.981 216.309 142.571 216.826 148.018ZM216.523 161.905C216.631 164.077 217.396 166.937 215.163 167.783C211.666 169.109 207.58 169.439 203.896 169.852C199.692 170.324 195.409 170.662 191.177 170.463C190.115 170.413 188.194 170.539 187.285 169.877C186.437 169.261 186.281 167.696 186.072 166.736C185.069 162.131 184.725 157.334 184.451 152.639C184.343 150.777 184.261 148.913 184.243 147.048C184.233 146.087 183.885 143.828 184.442 142.952C185.191 141.775 187.986 141.446 189.2 141.183C192.06 140.566 194.993 140.229 197.908 139.993C202.764 139.6 207.866 139.326 212.702 140.117C214.217 140.689 214.867 147.663 215.094 149.032C215.8 153.286 216.309 157.596 216.523 161.905Z" fill="white"/>
<path d="M206.25 172.051C204.892 172.201 203.532 172.324 202.185 172.444L201.171 172.536C196.938 172.92 192.56 173.317 188.375 172.623C184.672 172.007 184.155 169.444 183.607 166.731C182.534 161.413 182.171 155.823 181.937 150.574C181.918 150.119 181.865 149.58 181.809 148.99C181.546 146.232 181.187 142.456 183.274 140.78C186.194 138.439 191.145 138.087 195.127 137.804C195.774 137.758 196.391 137.714 196.957 137.664C201.889 137.228 207.596 136.836 212.923 137.714C213.102 137.713 213.281 137.748 213.457 137.816C215.858 138.75 216.885 144.364 217.22 146.905C217.226 146.926 217.232 146.947 217.238 146.97L217.284 146.975C217.282 147.015 217.286 147.088 217.294 147.198C218.07 150.598 219.012 164.308 219.012 164.459C219.014 167.278 218.796 169.066 215.738 170.124C212.713 171.174 209.485 171.692 206.25 172.051ZM191.697 139.171C188.776 139.495 185.829 140.105 183.946 141.617C182.31 142.931 182.638 146.375 182.877 148.89C182.935 149.498 182.988 150.056 183.009 150.527C183.24 155.733 183.601 161.273 184.66 166.519C185.247 169.426 185.716 171.093 188.55 171.563C192.601 172.236 196.909 171.844 201.075 171.467L202.09 171.376C206.572 170.971 211.215 170.556 215.387 169.112C217.734 168.299 217.941 167.252 217.939 164.462C217.936 160.786 216.946 152.056 216.474 148.555L216.339 148.546L216.293 148.068C216.293 148.065 216.292 148.062 216.292 148.06C216.079 145.873 215.042 139.585 213.069 138.818C213.014 138.796 212.963 138.786 212.914 138.79L212.798 138.783C207.581 137.913 201.934 138.302 197.053 138.734C196.48 138.784 195.857 138.829 195.202 138.875C194.088 138.954 192.895 139.038 191.697 139.171Z" fill="#B3C5D8"/>
<path d="M120.175 113.357C142.11 110.926 164.045 108.495 185.98 106.064C192.171 105.378 198.363 104.692 204.554 104.006C205.412 103.911 205.266 102.578 204.406 102.673C182.472 105.104 160.537 107.535 138.602 109.965C132.411 110.651 126.22 111.337 120.028 112.023C119.17 112.119 119.316 113.452 120.175 113.357Z" fill="#421B36"/>
<path d="M121.022 120.997C142.956 118.567 164.892 116.136 186.827 113.705C193.018 113.019 199.209 112.333 205.401 111.647C206.259 111.552 206.112 110.218 205.253 110.314C183.318 112.744 161.383 115.175 139.449 117.606C133.258 118.292 127.066 118.978 120.875 119.664C120.016 119.759 120.162 121.093 121.022 120.997Z" fill="#421B36"/>
<path d="M122.642 126.918C139.112 125.093 155.582 123.268 172.052 121.443C172.91 121.348 172.764 120.014 171.904 120.11C155.434 121.935 138.965 123.76 122.494 125.585C121.636 125.68 121.783 127.013 122.642 126.918Z" fill="#421B36"/>
<path d="M127.517 133.619C146.335 131.534 165.153 129.449 183.971 127.363C189.36 126.766 194.749 126.169 200.139 125.572C200.997 125.477 200.85 124.143 199.991 124.239C181.173 126.324 162.355 128.409 143.537 130.495C138.148 131.092 132.759 131.689 127.37 132.286C126.512 132.381 126.658 133.715 127.517 133.619Z" fill="#421B36"/>
<path d="M219.611 52.6247L29.5105 73.6908C29.4361 72.4836 29.3607 71.3488 29.2919 70.2734C28.9414 64.7575 32.6403 58.6693 38.0883 57.8819C51.4831 55.9589 207.613 37.0437 215.042 39.9066C216.379 40.423 217.959 45.1698 219.611 52.6247Z" fill="#235F9C"/>
<path d="M135.108 51.1282C134.051 51.0812 130.817 51.7345 130.817 51.7345L129.979 50.884C129.979 50.884 131.765 46.9359 131.149 46.2843C130.533 45.6327 126.424 43.8034 125.811 44.1533C125.197 44.5032 123.567 47.4413 123.567 47.4413L122.194 47.4115C122.194 47.4115 121.252 43.7193 119.736 43.9612C118.22 44.2032 115.339 45.5225 114.784 45.9748C114.229 46.4271 115.533 49.9939 115.533 49.9939L114.635 50.8929L114.188 50.7369C114.188 50.7369 111.054 49.2301 110.286 49.9506C109.518 50.671 107.982 54.9735 108.197 55.4793C108.412 55.9852 111.713 57.8447 111.713 57.8447L111.598 58.917C111.598 58.917 108.26 60.3463 108.213 61.3581C108.166 62.37 109.247 66.3824 110.305 66.3708C111.363 66.3591 114.556 65.5292 114.556 65.5292L115.44 66.3315C115.44 66.3315 113.874 70.3723 114.526 70.9882C115.177 71.6051 119.38 73.2053 119.973 72.8211C120.567 72.4377 122.032 69.4146 122.032 69.4146L123.404 69.3682C123.404 69.3682 124.549 73.0023 126.049 72.6776C127.549 72.3521 130.352 70.8764 130.882 70.3936C131.411 69.9109 129.912 66.4217 129.912 66.4217L130.808 65.4222C130.808 65.4222 133.936 66.8769 134.954 66.0222C135.971 65.1677 137.368 61.5169 137.048 61.0226C136.729 60.5283 133.816 58.6258 133.816 58.6258L133.799 58.3449C134.698 57.9828 136.841 57.0418 136.921 56.2464C137.023 55.2407 136.165 51.1751 135.108 51.1282ZM123.047 62.9902C120.435 63.2796 118.084 61.3969 117.795 58.786C117.505 56.1743 119.388 53.8224 121.999 53.5331C124.611 53.2437 126.962 55.1264 127.251 57.7381C127.54 60.349 125.658 62.7009 123.047 62.9902Z" fill="#FCC112"/>
<g filter="url(#filter0_ddd_735_2850)">
<path d="M44.8303 67.371C59.4926 65.5144 79.0162 63.2788 98.6497 61.1712C118.283 59.0636 138.025 57.0843 153.122 55.7381C160.671 55.0649 167.056 54.5505 171.686 54.2576C174.001 54.1112 175.873 54.0207 177.231 53.993C177.91 53.9791 178.455 53.981 178.859 53.9992C179.062 54.0083 179.224 54.0206 179.347 54.0365C179.478 54.0534 179.54 54.0712 179.557 54.0781C180.447 54.4355 181.21 55.5254 181.787 57.15C182.354 58.7477 182.7 60.7532 182.838 62.7598C182.975 64.7653 182.902 66.748 182.641 68.2966C182.51 69.0721 182.335 69.7237 182.124 70.2099C181.906 70.7108 181.681 70.9684 181.493 71.061L181.492 71.0611C181.11 71.2491 180.192 71.5016 178.741 71.8042C177.309 72.1027 175.407 72.4407 173.1 72.8125C168.485 73.5558 162.263 74.4304 154.967 75.3799C140.376 77.2789 121.5 79.4794 102.624 81.5449C83.7478 83.6104 64.8726 85.5406 50.2828 86.898C42.9877 87.5768 36.7655 88.1118 32.151 88.4495C29.8434 88.6183 27.9401 88.7377 26.5069 88.8008C25.0583 88.8645 24.1255 88.8691 23.7322 88.8184C23.6824 88.812 23.6015 88.7801 23.4897 88.6694C23.3773 88.5581 23.2541 88.3864 23.126 88.1448C22.8694 87.6611 22.6255 86.9655 22.3994 86.1099C21.9485 84.4036 21.5884 82.146 21.3084 79.8826C21.0288 77.6226 20.8307 75.3711 20.7031 73.684C20.6393 72.8408 20.5933 72.1387 20.5629 71.648C20.5486 71.4162 20.5372 71.2316 20.5299 71.1014C20.5858 71.0786 20.6588 71.0516 20.7519 71.0218C21.0478 70.9271 21.4885 70.8165 22.0723 70.6917C23.2367 70.4429 24.9302 70.1451 27.0825 69.8074C31.3852 69.1323 37.4986 68.2993 44.8303 67.371Z" fill="white" stroke="#E9E4FF" stroke-width="0.807518"/>
<path d="M176.703 62.2865C176.89 64.2157 175.9 66.1243 174.139 66.9873C172.359 67.8588 170.193 67.513 168.777 66.1263C167.391 64.7687 167.009 62.619 167.812 60.8604C168.609 59.1147 170.473 57.9885 172.395 58.1403C174.642 58.3162 176.426 60.0618 176.703 62.2865C176.811 63.1423 178.144 62.997 178.037 62.1388C177.726 59.6513 175.953 57.6005 173.522 56.9713C171.094 56.3426 168.406 57.3912 167.044 59.4961C165.679 61.6062 165.735 64.4087 167.265 66.4263C168.791 68.4378 171.43 69.2577 173.836 68.5434C176.589 67.7264 178.31 64.9545 178.037 62.1387C177.954 61.2795 176.62 61.4264 176.703 62.2865Z" fill="#235F9B"/>
<path d="M179.999 67.1566C179.02 66.5258 178.041 65.8957 177.062 65.2657C176.908 65.1666 176.759 65.1019 176.57 65.1229C176.406 65.141 176.219 65.2349 176.12 65.3701C175.923 65.6381 175.91 66.11 176.225 66.3124C177.204 66.9432 178.183 67.5733 179.161 68.2033C179.315 68.3024 179.465 68.3671 179.654 68.3461C179.818 68.328 180.005 68.2341 180.104 68.0989C180.301 67.8309 180.315 67.3597 179.999 67.1566Z" fill="#235F9B"/>
</g>
<path d="M115.694 96.1023C115.694 96.1023 115.753 104.694 118.818 105.671C121.885 106.649 201.594 97.9008 202.515 95.6913C203.435 93.4826 203.191 85.7076 201.31 84.8192C199.43 83.9308 115.518 93.3668 115.694 96.1023Z" fill="#235F9C" fill-opacity="0.3"/>
<path d="M178.25 120.562C183.057 120.029 187.863 119.496 192.67 118.964C193.528 118.869 193.382 117.535 192.522 117.631C187.716 118.163 182.909 118.696 178.102 119.229C177.244 119.324 177.39 120.657 178.25 120.562Z" fill="#421B36"/>
<path d="M40.5965 47.3021C38.8392 42.2029 34.7478 39.0531 27.8304 40.0476C27.8304 40.0476 19.9534 41.478 15.2883 42.675C10.6233 43.8719 5.88892 46.4758 4.10154 50.9478C2.73517 54.3674 3.33461 58.2227 4.0425 61.8364C4.56867 64.5224 5.15585 67.236 6.4117 69.6679C7.66756 72.0998 9.68467 74.2536 12.2861 75.1051C15.1675 76.0476 18.2973 75.2973 21.2335 74.543C22.8151 74.1365 24.3973 73.7304 25.9789 73.3239C27.1794 76.0677 33.2985 79.9533 34.4816 77.489C34.9296 76.5562 32.5757 73.1465 31.6764 71.8601C33.2758 71.4494 34.8751 71.0387 36.4739 70.6275C39.2721 69.9084 42.3876 68.9483 43.7261 66.3879C44.6559 64.6079 44.2109 61.319 44.0088 59.3211L40.5965 47.3021Z" fill="#FCC112"/>
<path d="M17.2378 54.4139C16.3182 55.3951 15.3987 56.3768 14.4785 57.3581C13.7722 58.1119 12.661 59.0575 12.8802 60.2238C13.0996 61.3912 14.3898 61.6324 15.3445 61.9301C16.6258 62.3301 17.9076 62.7301 19.1889 63.1301C19.5046 63.2288 19.8441 63.1448 19.9921 62.8215C20.1165 62.5494 19.9967 62.1161 19.6834 62.0183C18.5988 61.6798 17.5147 61.3413 16.4302 61.0028C15.903 60.8382 15.3734 60.6811 14.8486 60.5085C14.588 60.4231 14.1131 60.3113 14.0714 59.9803C14.0249 59.6101 14.4206 59.2058 14.643 58.9571C15.0212 58.5343 15.4188 58.1276 15.8068 57.7137C16.6 56.8669 17.3937 56.0205 18.1869 55.1736C18.7241 54.6019 17.7709 53.8453 17.2378 54.4139Z" fill="white"/>
<path d="M29.8232 61.3351C30.9578 60.4317 32.0925 59.5282 33.2271 58.6248C34.0838 57.9425 35.3585 57.0335 34.9532 55.757C34.653 54.8111 33.5245 54.4443 32.6992 54.0799C31.878 53.7177 31.0493 53.3724 30.2194 53.031C29.6978 52.8167 29.1758 52.6041 28.6525 52.3949C27.9254 52.1046 27.4298 53.216 28.1581 53.5067C29.6255 54.092 31.0913 54.688 32.5321 55.3364C32.8929 55.499 33.6189 55.7001 33.7871 56.0871C33.97 56.5079 33.3238 56.9874 33.0586 57.2039C31.7498 58.2691 30.4176 59.307 29.0978 60.3579C28.4861 60.8447 29.2084 61.8244 29.8232 61.3351Z" fill="white"/>
<path d="M23.5744 65.9106C24.3252 60.7714 24.7904 55.5959 25.5413 50.4573C25.6546 49.6819 24.4527 49.49 24.3399 50.2647C23.5891 55.404 23.1238 60.5794 22.3729 65.7181C22.2591 66.4941 23.461 66.686 23.5744 65.9106Z" fill="white"/>
<defs>
<filter id="filter0_ddd_735_2850" x="14.4625" y="44.6971" width="281.9" height="144.692" filterUnits="userSpaceOnUse" color-interpolation-filters="sRGB">
<feFlood flood-opacity="0" result="BackgroundImageFix"/>
<feColorMatrix in="SourceAlpha" type="matrix" values="0 0 0 0 0 0 0 0 0 0 0 0 0 0 0 0 0 0 127 0" result="hardAlpha"/>
<feOffset dx="18.5729" dy="15.3428"/>
<feGaussianBlur stdDeviation="12.1128"/>
<feColorMatrix type="matrix" values="0 0 0 0 0 0 0 0 0 0 0 0 0 0 0.0784314 0 0 0 0.05 0"/>
<feBlend mode="normal" in2="BackgroundImageFix" result="effect1_dropShadow_735_2850"/>
<feColorMatrix in="SourceAlpha" type="matrix" values="0 0 0 0 0 0 0 0 0 0 0 0 0 0 0 0 0 0 127 0" result="hardAlpha"/>
<feOffset dx="41.9909" dy="34.7233"/>
<feGaussianBlur stdDeviation="16.1504"/>
<feColorMatrix type="matrix" values="0 0 0 0 0 0 0 0 0 0 0 0 0 0 0.0784314 0 0 0 0.05 0"/>
<feBlend mode="normal" in2="effect1_dropShadow_735_2850" result="effect2_dropShadow_735_2850"/>
<feColorMatrix in="SourceAlpha" type="matrix" values="0 0 0 0 0 0 0 0 0 0 0 0 0 0 0 0 0 0 127 0" result="hardAlpha"/>
<feOffset dx="74.2917" dy="61.3714"/>
<feGaussianBlur stdDeviation="19.3804"/>
<feColorMatrix type="matrix" values="0 0 0 0 0 0 0 0 0 0 0 0 0 0 0.0784314 0 0 0 0.01 0"/>
<feBlend mode="normal" in2="effect2_dropShadow_735_2850" result="effect3_dropShadow_735_2850"/>
<feBlend mode="normal" in="SourceGraphic" in2="effect3_dropShadow_735_2850" result="shape"/>
</filter>
</defs>
</svg>
