<svg width="59" height="59" viewBox="0 0 59 59" fill="none" xmlns="http://www.w3.org/2000/svg">
<path d="M53.6016 14.1935C44.4463 9.0341 15.3523 1.50734 12.9296 5.56545C10.4894 9.65302 2.49877 38.6576 4.18493 43.2982C5.87109 47.9388 43.4385 56.559 46.3013 53.7928C49.1641 51.0266 56.9121 16.0592 53.6016 14.1935Z" fill="#A0D2F4"/>
<path d="M48.2847 25.5968C45.7556 28.9509 40.9863 29.6207 37.6321 27.0916C34.2779 24.5626 33.608 19.794 36.1372 16.4391C38.6663 13.0849 43.4347 12.4157 46.7898 14.9442C50.144 17.4733 50.8138 22.2426 48.2847 25.5968Z" fill="#245F9C"/>
<path d="M46.3009 53.7926C47.5134 52.621 49.602 45.674 51.3562 37.9116C47.7556 33.6698 41.8088 31.3933 36.3205 32.5082C34.246 32.9293 31.9614 33.7458 30.1338 32.6764C28.7248 31.8521 28.1119 30.1806 27.3716 28.7265C25.3477 24.7497 21.6233 21.6747 17.3364 20.4382C14.2912 19.5602 10.9943 19.6242 7.96609 20.5523C5.43718 29.9493 3.21739 40.6342 4.18451 43.298C5.87051 47.9394 43.4379 56.5596 46.3009 53.7926Z" fill="#245F9C"/>
<path d="M54.7054 27.6053C54.5335 28.3211 57.5985 15.8509 54.3928 13.1432C54.2386 13.0127 54.0794 12.9315 53.9204 12.8865C47.4444 9.38508 40.0224 7.3572 32.9182 5.60199C27.5749 4.28194 19.3278 1.50444 13.8187 3.48969C9.96118 4.87946 9.05546 11.9896 8.06539 15.3566C5.94959 22.551 3.94577 29.9473 2.96279 37.3944C2.4058 41.6147 2.22239 44.4479 6.21174 46.6008C11.5741 49.4942 17.8693 50.9667 23.7417 52.4081C30.0075 53.9455 36.7212 55.6523 43.2184 55.6326C47.2748 55.6208 48.171 53.7741 49.4189 50.1268C51.9032 42.8685 56.4937 20.1585 54.7054 27.6053ZM47.9972 45.8561C47.1529 48.782 46.8677 52.9157 43.526 53.0227C38.2939 53.1898 32.7331 51.7711 27.6681 50.6451C21.888 49.3596 16.063 47.8625 10.5493 45.6767C9.16592 45.1284 6.56435 44.4207 5.66136 43.1334C4.81935 41.9324 5.32367 39.7884 5.48221 38.4226C6.24626 31.8688 7.96797 25.3607 9.73926 19.0206C10.441 16.5067 11.1792 14.0002 12.0021 11.5229C12.4261 10.2464 12.9905 7.09738 14.1262 6.19045C15.6529 4.97133 19.5031 5.80598 21.2296 6.00946C25.2978 6.49077 29.3344 7.37751 33.3 8.38842C39.9087 10.0726 46.7885 12.0275 52.8327 15.2713C54.5793 16.7174 52.2726 26.2469 51.9516 28.1616C50.9534 34.1152 49.67 40.0538 47.9972 45.8561Z" fill="white"/>
<path d="M32.336 54.9488C29.6192 54.4058 26.9197 53.7427 24.2588 53.0889L22.8725 52.7484C17.1126 51.3376 11.1554 49.8792 5.95816 47.0748C1.76815 44.8134 1.83101 41.8829 2.43153 37.3254C3.42352 29.8126 5.47847 22.2552 7.55201 15.2064C7.7328 14.5903 7.91072 13.8485 8.10479 13.0383C8.99869 9.31606 10.2222 4.21697 13.6379 2.98593C18.5029 1.23181 25.1865 3.0067 30.5583 4.43539C31.4373 4.66873 32.2724 4.89083 33.047 5.08189C39.7684 6.74165 47.4923 8.81179 54.1269 12.3894C54.345 12.4602 54.5501 12.5753 54.7376 12.733C57.4168 14.997 56.2601 22.6911 55.5537 26.1757C55.5518 26.2264 55.549 26.2818 55.5455 26.3404L55.5808 26.3574C55.576 26.3688 55.5626 26.4073 55.5306 26.5219C55.1669 30.4259 50.7953 47.7603 49.926 50.3007C48.6842 53.9303 47.6957 56.1563 43.2198 56.1699C39.599 56.1816 35.9524 55.6717 32.336 54.9488ZM24.2277 4.00088C20.5828 3.27231 16.8966 2.95217 14.0017 3.9958C11.131 5.03025 9.9849 9.80388 9.1483 13.2888C8.94948 14.1187 8.76634 14.8784 8.58096 15.5092C6.51993 22.5161 4.4778 30.0258 3.49545 37.4657C2.93972 41.6754 2.80427 44.1534 6.46736 46.1299C11.5433 48.8698 17.4322 50.3112 23.1271 51.7057L24.5149 52.0465C30.6569 53.5566 37.009 55.1154 43.2176 55.0973C46.8167 55.0871 47.6384 53.6785 48.9123 49.9548C50.6414 44.9008 53.295 32.7379 54.2315 28.0237L54.0695 27.9567L54.1835 27.4813C54.1874 27.4656 54.1908 27.449 54.1946 27.4341C54.92 24.3774 56.3946 15.5379 54.0464 13.5542C53.9584 13.4798 53.8701 13.4308 53.7758 13.4046L53.6652 13.3602C47.1296 9.82712 39.4635 7.77265 32.7899 6.12492C32.0099 5.93196 31.1685 5.7086 30.2824 5.47383C28.3816 4.9679 26.311 4.41732 24.2277 4.00088Z" fill="#421B36"/>
</svg>
